# xmcd
#
# Track frame offsets: 
#        150
#        19550
#        35968
#        50807
#        61259
#        76575
#        91265
#        106920
#        130730
#        149446
#        173523
#        191393
#        209530
#        237002
#        249584
#
# Disc length: 3396 seconds
#
# Revision: 0
# Processed by: cddbd v1.5.2PL0 Copyright (c) Steve Scherf et al.
# Submitted via: ExactAudioCopy v1.0b4
#
DISCID=c30d420f
DTITLE=J.D. Slim - J.D. Bélanger A.K.A. J.D. Slim - CD2
DYEAR=2012
DGENRE=blues
TTITLE0=I'm Your Superhero
TTITLE1=Don't Take It Out On Me
TTITLE2=I'm On A Roll
TTITLE3=Don't Hesitate
TTITLE4=Working Woman
TTITLE5=The Green Running Shoes Theme
TTITLE6=Right On
TTITLE7=The Good Time Have Gone Bad
TTITLE8=Car Load Of Trouble
TTITLE9=Leaving On A Midnight Train
TTITLE10=Riding The E-Wam
TTITLE11=Tarantula
TTITLE12=Tossin's n' Turnin'
TTITLE13=Cabarete
TTITLE14=Gango
EXTD=
EXTT0=
EXTT1=
EXTT2=
EXTT3=
EXTT4=
EXTT5=
EXTT6=
EXTT7=
EXTT8=
EXTT9=
EXTT10=
EXTT11=
EXTT12=
EXTT13=
EXTT14=
PLAYORDER=
